<svg width="880" height="1013" viewBox="0 0 880 1013" fill="none" xmlns="http://www.w3.org/2000/svg">
<path d="M548.859 499.131C560.261 519.232 571.755 539.281 583.035 559.45C591.493 574.574 599.675 589.854 607.985 605.062C608.833 606.614 609.72 608.146 611.493 609.401C611.493 491.109 611.493 372.817 611.493 253.969C576.552 253.969 541.831 253.969 505.537 253.969C568.221 168.857 630.085 84.858 692.507 0.102539C754.824 84.6668 816.733 168.677 879.4 253.716C843.417 253.716 808.591 253.716 773.279 253.716C773.279 506.01 773.279 757.58 773.279 1009.96C771.042 1009.96 769.29 1009.96 767.538 1009.96C717.375 1009.96 667.211 1009.9 617.049 1010.07C612.562 1010.09 610.807 1008.47 609.223 1004.49C555.416 869.164 495.094 736.909 422.206 610.66C390.012 554.895 355.174 500.851 313.86 451.254C307.783 443.959 301.411 436.91 295.227 429.073C296.936 427.924 298.622 426.961 300.249 427.054C310.347 427.631 320.581 427.598 330.492 429.345C355.982 433.838 381.519 438.343 406.685 444.328C445.785 453.627 483.105 468.227 519.505 485.199C525.348 487.923 531.363 490.276 537.603 492.938C541.557 495.093 545.208 497.112 548.859 499.131Z" fill="#F3B907"/>
<path d="M548.823 498.79C545.207 497.112 541.556 495.093 537.451 492.637C519.298 479.793 502.012 466.744 483.823 455.106C437.366 425.38 387.833 401.853 335.622 384.047C290.104 368.524 243.596 357.44 195.545 353.521C194.132 353.406 192.638 354.276 191.182 354.686C183.283 353.754 175.399 352.661 167.481 351.941C161.202 351.369 161.181 351.574 161.154 358.099C161.151 358.765 161.154 359.432 161.154 360.098C161.154 521.082 161.154 682.066 161.154 843.05C161.154 845.474 161.154 847.897 161.154 851.34C223.271 834.107 272.423 800.243 308.755 748.316C345.178 696.259 359.481 638.169 354.887 574.496C355.982 575.91 357.246 577.224 358.146 578.753C378.764 613.789 399.862 648.556 419.766 683.994C435.916 712.748 450.565 742.343 466.043 771.478C468.057 775.268 468.083 778.29 466.141 782.156C421.586 870.834 354.129 935.666 263.833 976.743C224.972 994.421 184.167 1005.4 141.774 1009.58C120.111 1011.72 98.2049 1011.67 76.399 1012.03C53.241 1012.41 30.0717 1012.12 6.90738 1012.11C0.0789757 1012.11 0.0670512 1012.1 0.0669902 1005.28C0.0648842 771.634 0.065204 537.991 0.065182 304.348C0.065182 268.684 0.0622441 233.021 0.0681651 197.358C0.0692481 190.808 0.0859499 190.79 6.67843 190.792C61.6728 190.806 116.669 190.594 171.661 190.934C203.555 191.131 233.963 199.024 263.474 210.726C305.543 227.409 343.292 251.23 378.2 279.814C427.343 320.054 466.823 368.611 500.531 422.087C515.279 445.483 529.482 469.224 544.012 492.758C545.3 494.844 547.183 496.561 548.823 498.79Z" fill="#ED1A23"/>
<path d="M191.529 354.818C192.639 354.276 194.132 353.407 195.546 353.522C243.596 357.441 290.105 368.525 335.622 384.048C387.833 401.854 437.367 425.381 483.824 455.107C502.013 466.745 519.299 479.794 537.148 492.501C531.363 490.277 525.347 487.924 519.504 485.2C483.105 468.228 445.784 453.627 406.684 444.329C381.519 438.344 355.981 433.838 330.491 429.345C320.58 427.599 310.346 427.631 300.248 427.054C298.622 426.961 296.935 427.924 295.107 428.763C292.546 426.844 290.076 424.637 287.777 422.266C265.303 399.098 241.459 377.651 212.226 363.177C205.687 359.94 198.672 357.667 191.529 354.818Z" fill="#D29F14"/>
</svg>
