<svg width="1112" height="1273" viewBox="0 0 1112 1273" fill="none" xmlns="http://www.w3.org/2000/svg">
<rect width="1112" height="1273" rx="80" fill="url(#paint0_linear_62_806)"/>
<path d="M701.794 629.028C713.196 649.129 724.69 669.178 735.97 689.347C744.429 704.472 752.61 719.752 760.921 734.959C761.769 736.512 762.655 738.043 764.429 739.298C764.429 621.006 764.429 502.714 764.429 383.866C729.487 383.866 694.766 383.866 658.473 383.866C721.157 298.754 783.021 214.755 845.442 130C907.759 214.564 969.668 298.575 1032.34 383.613C996.352 383.613 961.526 383.613 926.215 383.613C926.215 635.907 926.215 887.478 926.215 1139.86C923.978 1139.86 922.225 1139.86 920.473 1139.86C870.31 1139.86 820.147 1139.8 769.985 1139.97C765.497 1139.99 763.743 1138.37 762.158 1134.39C708.352 999.061 648.029 866.807 575.142 740.557C542.947 684.793 508.109 630.749 466.796 581.152C460.719 573.856 454.347 566.807 448.162 558.97C449.871 557.821 451.558 556.858 453.184 556.951C463.282 557.528 473.516 557.496 483.427 559.242C508.917 563.735 534.455 568.241 559.62 574.226C598.72 583.524 636.041 598.125 672.44 615.097C678.283 617.821 684.299 620.174 690.538 622.835C694.493 624.991 698.143 627.01 701.794 629.028Z" fill="#F3B907"/>
<path d="M701.759 628.688C698.143 627.009 694.492 624.991 690.386 622.535C672.234 609.691 654.948 596.642 636.759 585.004C590.302 555.278 540.768 531.751 488.557 513.945C443.04 498.422 396.531 487.338 348.481 483.419C347.067 483.304 345.574 484.173 344.118 484.584C336.219 483.651 328.335 482.558 320.417 481.838C314.137 481.267 314.117 481.471 314.09 487.996C314.087 488.663 314.089 489.329 314.089 489.996C314.089 650.98 314.089 811.964 314.089 972.947C314.089 975.371 314.089 977.795 314.089 981.237C376.207 964.004 425.358 930.141 461.691 878.213C498.113 826.156 512.416 768.066 507.822 704.393C508.917 705.807 510.182 707.121 511.082 708.65C531.7 743.686 552.797 778.454 572.701 813.891C588.851 842.645 603.501 872.24 618.979 901.375C620.992 905.166 621.019 908.188 619.076 912.053C574.522 1000.73 507.064 1065.56 416.768 1106.64C377.907 1124.32 337.102 1135.3 294.71 1139.48C273.046 1141.62 251.14 1141.57 229.335 1141.93C206.177 1142.31 183.007 1142.02 159.843 1142.01C153.015 1142.01 153.003 1142 153.003 1135.17C153 901.532 153.001 667.888 153.001 434.245C153.001 398.582 152.998 362.919 153.004 327.256C153.005 320.705 153.021 320.688 159.614 320.689C214.608 320.703 269.604 320.492 324.597 320.831C356.49 321.028 386.898 328.921 416.409 340.624C458.478 357.306 496.228 381.127 531.135 409.711C580.278 449.952 619.759 498.509 653.467 551.984C668.215 575.381 682.417 599.121 696.948 622.656C698.235 624.741 700.118 626.459 701.759 628.688Z" fill="#ED1A23"/>
<path d="M344.465 484.716C345.574 484.174 347.068 483.304 348.481 483.42C396.532 487.338 443.04 498.423 488.558 513.946C540.769 531.751 590.302 555.279 636.759 585.004C654.948 596.643 672.234 609.691 690.083 622.398C684.299 620.174 678.283 617.821 672.44 615.097C636.04 598.125 598.72 583.525 559.62 574.226C534.454 568.241 508.917 563.736 483.427 559.243C473.516 557.496 463.282 557.529 453.184 556.952C451.557 556.859 449.871 557.822 448.042 558.66C445.481 556.742 443.012 554.535 440.712 552.164C418.239 528.995 394.394 507.548 365.161 493.075C358.623 489.838 351.607 487.564 344.465 484.716Z" fill="#D29F14"/>
<defs>
<linearGradient id="paint0_linear_62_806" x1="556" y1="0" x2="556" y2="1273" gradientUnits="userSpaceOnUse">
<stop stop-color="#444444"/>
<stop offset="1" stop-color="#111111"/>
</linearGradient>
</defs>
</svg>
